<svg id="Capa_1" enable-background="new 0 0 480 480" height="512" viewBox="0 0 480 480" width="512" xmlns="http://www.w3.org/2000/svg"><path d="m32 173.406v2.594h16v-2.594c0-3.973.393-7.936 1.174-11.831l-15.688-3.15c-.988 4.933-1.486 9.951-1.486 14.981z"/><path d="m32 192h16v120h-16z"/><path d="m416 211.168v-27.168c-.01-8.832-7.168-15.99-16-16h-176c-.049 0-.1.007-.146.007-1.669-34.099-19.429-65.38-47.854-84.288v-30.419c13.973-6.625 19.929-23.323 13.304-37.296-4.635-9.775-14.486-16.005-25.304-16.004h-104c-15.464-.002-28.002 12.532-28.004 27.996-.001 10.818 6.229 20.669 16.004 25.304v30.419c-30.017 19.965-48.039 53.638-48 89.688v266.593c.025 22.081 17.919 39.975 40 40h144c10.555.007 20.683-4.167 28.169-11.609l5.1 7.935c1.472 2.29 4.008 3.675 6.731 3.674h176c2.722 0 5.257-1.384 6.729-3.674l50.129-77.977c15.124-23.496 23.158-50.852 23.142-78.795 0-45.089-24.518-86.611-64-108.386zm-16-27.168v24h-152v16h158.041c25.609 13.328 44.788 36.39 53.223 64h-260.478c2.507-5.488 5.665-10.654 9.406-15.388l-12.554-9.92c-6.006 7.631-10.751 16.176-14.054 25.308h-16.848c8.623-28.216 28.449-51.657 54.842-64.845 2.71-1.355 4.422-4.125 4.422-7.155v-32zm-343.126-86.968c4.456-2.963 7.132-7.962 7.126-13.313v-28.789c3.827-2.207 5.141-7.1 2.933-10.927-1.429-2.478-4.072-4.004-6.933-4.003-6.627 0-12-5.373-12-12s5.373-12 12-12h104c6.627 0 12 5.373 12 12s-5.373 12-12 12h-76v16h72v27.719c-.006 5.351 2.669 10.349 7.125 13.312 11.91 7.93 21.8 18.535 28.88 30.969h-168.005c7.078-12.433 16.966-23.038 28.874-30.968zm127.126 366.968h-144c-13.248-.015-23.985-10.752-24-24v-266.593c-.002-10 1.629-19.933 4.828-29.407h182.344c3.199 9.474 4.83 19.407 4.828 29.407v37.761c-39.483 21.775-64.001 63.298-64 108.387-.016 27.943 8.018 55.298 23.142 78.794l36.043 56.066c-4.528 6.039-11.637 9.591-19.185 9.585zm259.4-74.3-47.767 74.3h-167.266l-47.767-74.3c-13.463-20.917-20.615-45.271-20.6-70.146.003-5.205.382-10.404 1.136-15.554h16.193c-.882 5.138-1.327 10.342-1.329 15.555-.014 21.808 6.26 43.158 18.069 61.492l13.455-8.656c-10.146-15.754-15.536-34.098-15.524-52.836-.004-5.225.52-10.436 1.566-15.555h269.3c.753 5.151 1.132 10.349 1.134 15.555.015 24.875-7.137 49.228-20.6 70.145z"/><path d="m220.4 260.369c4.184-3.323 8.703-6.201 13.483-8.588l-7.154-14.312c-5.776 2.885-11.235 6.363-16.29 10.379z"/><path d="m272 93.248v9.9c0 12.127 8.61 22.675 20.028 24.534 3.993.653 8.085.301 11.908-1.023.021-.008.042-.015.064-.021v.51c0 12.127 8.61 22.675 20.028 24.534 1.302.211 2.618.318 3.937.318 13.25.024 24.011-10.697 24.035-23.947 0-.018 0-.035 0-.053v-34.752c10.761-3.835 19.813-11.364 25.542-21.248h78.458c13.255 0 24-10.745 24-24s-10.745-24-24-24h-78.458c-8.572-14.841-24.404-23.987-41.542-24h-48c-26.51.011-47.991 21.51-47.981 48.019.009 20.327 12.82 38.445 31.981 45.229zm184-53.248c4.418 0 8 3.582 8 8s-3.582 8-8 8h-72.679c.905-5.295.905-10.705 0-16zm-120 88c-.003 4.424-3.591 8.009-8.016 8.006-.464 0-.927-.041-1.384-.121-3.7-.6-6.6-4.442-6.6-8.741v-1.051c.042-4.988-2.368-9.679-6.447-12.55-4.355-3.035-9.909-3.775-14.907-1.988-1.3.449-2.692.562-4.048.33-3.7-.6-6.6-4.442-6.6-8.741v-7.144h48zm32-80c-.007 11.427-6.105 21.984-16 27.7v-55.395c9.894 5.715 15.991 16.27 16 27.695zm-32 32h-16v-64h16zm-32-64v64h-16v-64zm-32 4.305v55.395c-15.296-8.819-20.546-28.368-11.726-43.664 2.809-4.872 6.854-8.917 11.726-11.726z"/></svg>